<?xml version="1.0" encoding="utf-8"?>
<!-- Generator: Adobe Illustrator 24.3.0, SVG Export Plug-In . SVG Version: 6.00 Build 0)  -->
<svg version="1.1" xmlns="http://www.w3.org/2000/svg" xmlns:xlink="http://www.w3.org/1999/xlink" x="0px" y="0px"
	 viewBox="0 0 318.96 234.08" style="enable-background:new 0 0 318.96 234.08;" xml:space="preserve">
<style type="text/css">
	.st0{fill:#9333E3;}
	.st1{fill:#7D2FC9;}
</style>
<g id="Layer_1">
</g>
<g id="Layer_2">
	<g>
		<g>
			<path class="st0" d="M141.6,146.11c-14.15-9.53-51.79-34.04-51.79-34.04s37.64-24.51,51.79-34.04
				c14.15-9.53,12.9-18.29,12.9-25.41c0-7.12,0-10.97,0-16.65c0-20.02-21.76-27.53-37.45-18.1c0,0-42.36,28.3-60.07,39.76
				C39.27,69.08,33.5,86.89,33.5,95.84c0,8.95,0,16.23,0,16.23s0,7.28,0,16.23s5.78,26.76,23.49,38.22s60.07,39.76,60.07,39.76
				c15.69,9.43,37.45,1.93,37.45-18.1c0-5.68,0-9.53,0-16.65S155.75,155.64,141.6,146.11z"/>
			<path class="st1" d="M154.5,188.18c0-5.68,0-9.53,0-16.65s1.25-15.88-12.9-25.41c-14.15-9.53-51.79-34.04-51.79-34.04
				s-13.97,8.87-23.56,15.84c-7.14,5.2-11.89,16.72-8.29,26.32s8.02,18.15,8.02,18.15l0,0c20.05,13.16,51.07,33.89,51.07,33.89
				C132.74,215.71,154.5,208.2,154.5,188.18z"/>
		</g>
		<g>
			<path class="st0" d="M190.86,78.03c14.15,9.53,51.79,34.04,51.79,34.04s-37.64,24.51-51.79,34.04
				c-14.15,9.53-12.9,18.29-12.9,25.41c0,7.12,0,10.97,0,16.65c0,20.02,21.76,27.53,37.45,18.1c0,0,42.36-28.3,60.07-39.76
				c17.71-11.46,23.49-29.26,23.49-38.22c0-8.95,0-16.23,0-16.23s0-7.28,0-16.23s-5.78-26.76-23.49-38.22s-60.07-39.76-60.07-39.76
				c-15.69-9.43-37.45-1.93-37.45,18.1c0,5.68,0,9.53,0,16.65S176.71,68.5,190.86,78.03z"/>
			<path class="st1" d="M177.96,35.96c0,5.68,0,9.53,0,16.65s-1.25,15.88,12.9,25.41c14.15,9.53,51.79,34.04,51.79,34.04
				s13.97-8.87,23.56-15.84c7.14-5.2,11.89-16.72,8.29-26.32s-8.02-18.15-8.02-18.15l0,0c-20.05-13.16-51.07-33.89-51.07-33.89
				C199.72,8.43,177.96,15.94,177.96,35.96z"/>
		</g>
	</g>
</g>
</svg>
